HIERARCHY
ROOT Hips
{
	OFFSET 0.00 0.00 0.00
	CHANNELS 6 Xposition Yposition Zposition Xrotation Yrotation Zrotation
	JOINT RightUpLeg
	{
		OFFSET -3.69398 0.00000 0.00000
		CHANNELS 3 Xrotation Yrotation Zrotation
		JOINT RightLeg
		{
			OFFSET 0.00000 -15.79567 0.00000
			CHANNELS 3 Xrotation Yrotation Zrotation
			JOINT RightFoot
			{
				OFFSET 0.00000 -14.76699 0.00000
				CHANNELS 3 Xrotation Yrotation Zrotation
				JOINT RightToeBase
				{
					OFFSET 0.00000 -1.28446 4.79369
					CHANNELS 3 Xrotation Yrotation Zrotation
					End Site
					{
						OFFSET 0.00000 0.00000 2.95275
					}
				}
			}
		}
	}
	JOINT LeftUpLeg
	{
		OFFSET 3.69398 0.00000 0.00000
		CHANNELS 3 Xrotation Yrotation Zrotation
		JOINT LeftLeg
		{
			OFFSET 0.00000 -15.79567 0.00000
			CHANNELS 3 Xrotation Yrotation Zrotation
			JOINT LeftFoot
			{
				OFFSET 0.00000 -14.76699 0.00000
				CHANNELS 3 Xrotation Yrotation Zrotation
				JOINT LeftToeBase
				{
					OFFSET 0.00000 -1.28446 4.79369
					CHANNELS 3 Xrotation Yrotation Zrotation
					End Site
					{
						OFFSET 0.00000 0.00000 2.95275
					}
				}
			}
		}
	}
	JOINT Spine
	{
		OFFSET 0.00000 2.39296 0.00000
		CHANNELS 3 Xrotation Yrotation Zrotation
		JOINT RightShoulder
		{
			OFFSET 0.00000 13.20741 0.00000
			CHANNELS 3 Xrotation Yrotation Zrotation
			JOINT RightArm
			{
				OFFSET -8.14047 0.00000 0.00000
				CHANNELS 3 Xrotation Yrotation Zrotation
				JOINT RightForeArm
				{
					OFFSET -10.64984 0.00000 0.00000
					CHANNELS 3 Yrotation Zrotation Xrotation
					JOINT RightHand
					{
						OFFSET -8.30462 0.00000 0.00000
						CHANNELS 3 Xrotation Yrotation Zrotation
						End Site
						{
							OFFSET -3.93700 0.00000 0.00000
						}
						JOINT RightHandThumb1
						{
							OFFSET 0.00000 0.00000 0.00000
							CHANNELS 3 Xrotation Zrotation Yrotation
							End Site
							{
								OFFSET 0.00000 0.00000 3.93700
							}
						}
					}
				}
			}
		}
		JOINT LeftShoulder
		{
			OFFSET 0.00000 13.20741 0.00000
			CHANNELS 3 Xrotation Yrotation Zrotation
			JOINT LeftArm
			{
				OFFSET 8.14047 0.00000 0.00000
				CHANNELS 3 Xrotation Yrotation Zrotation
				JOINT LeftForeArm
				{
					OFFSET 10.64984 0.00000 0.00000
					CHANNELS 3 Yrotation Zrotation Xrotation
					JOINT LeftHand
					{
						OFFSET 8.30462 0.00000 0.00000
						CHANNELS 3 Xrotation Yrotation Zrotation
						End Site
						{
							OFFSET 3.93700 0.00000 0.00000
						}
						JOINT LeftHandThumb1
						{
							OFFSET 0.00000 0.00000 0.00000
							CHANNELS 3 Xrotation Zrotation Yrotation
							End Site
							{
								OFFSET 0.00000 0.00000 3.93700
							}
						}
					}
				}
			}
		}
		JOINT Head
		{
			OFFSET 0.00000 19.25010 0.00000
			CHANNELS 3 Xrotation Yrotation Zrotation
			End Site
			{
				OFFSET 0.00000 4.52755 0.00000
			}
		}
	}
}
MOTION
Frames: 7
Frame Time: 0.008333
 11.4163 19.2082 5.0433 107.1243 34.1721 90.4213 -106.3415 4.6210 12.6479 68.5276 -0.0000 -0.0000 55.7315 3.5623 10.5336 50.2027 -0.0000 0.0000 -102.9525 -1.3173 27.6002 81.3302 -0.0000 -0.0000 28.3130 -15.1829 -17.5846 46.2494 0.0000 0.0000 68.0893 6.3039 -23.4986 -130.6955 20.4117 1.9910 -147.5318 40.2367 60.2919 111.2653 0.0000 -53.7236 -0.9402 6.2828 8.5286 32.8623 0.0000 -24.3270 40.3936 31.6285 21.4604 30.5910 -51.9759 -46.6281 -109.3140 -0.0000 -25.5220 2.4567 14.6599 -9.6215 33.1476 -0.0000 26.2537 104.5647 -31.3804 4.2075
 11.4627 19.2089 5.0427 107.0833 34.0574 90.3882 -106.2585 4.2601 12.6447 69.1674 0.0000 -0.0000 55.7202 4.0700 9.8066 49.5983 -0.0000 -0.0000 -102.9536 -1.2183 27.4320 82.0314 0.0000 -0.0000 28.0334 -15.4762 -17.4739 46.6675 0.0000 0.0000 68.0740 6.3345 -23.4455 -130.7635 20.4623 2.0535 -147.5251 40.3037 60.2529 111.2151 0.0000 -53.7451 -0.9396 6.3605 8.4206 32.8623 0.0000 -24.3270 40.3127 31.7406 21.4607 30.4858 -51.9729 -46.6571 -109.2779 -0.0000 -25.7719 2.5241 14.7386 -9.8304 33.1476 -0.0000 26.2537 104.6068 -31.5736 4.0721
 11.5108 19.2188 5.0296 107.2330 34.1152 90.3412 -106.3762 3.9741 12.8867 69.6860 -0.0000 0.0000 55.7227 4.1277 10.0043 49.8800 0.0000 0.0000 -103.1208 -1.0563 27.5088 82.7617 0.0000 0.0000 27.8403 -15.7989 -17.8152 46.4858 0.0000 0.0000 67.9052 6.3858 -23.6514 -130.8285 20.5371 2.0831 -147.4956 40.4413 60.2032 111.1423 0.0000 -53.7432 -0.9630 6.5017 8.4436 32.8623 0.0000 -24.3270 40.2499 31.8690 21.5431 30.4642 -52.0158 -46.6210 -109.3009 -0.0000 -25.5056 2.4705 14.7771 -9.6010 33.1476 -0.0000 26.2537 104.6637 -31.7529 4.0642
 11.5517 19.2244 5.0144 107.3302 33.9763 90.2466 -106.2634 3.6660 13.0837 70.2001 0.0000 0.0000 55.7341 4.2444 10.1738 50.1096 -0.0000 -0.0000 -103.0841 -0.9502 27.5176 83.4685 0.0000 0.0000 27.5955 -16.1662 -17.7671 46.6876 -0.0000 0.0000 67.9500 6.4699 -23.7744 -130.9783 20.6576 2.1914 -147.4757 40.5912 60.1753 111.1041 0.0000 -53.7985 -0.9245 6.4122 8.2218 32.8623 0.0000 -24.3270 40.0405 31.9872 21.7071 30.4790 -52.1014 -46.6317 -109.3146 -0.0000 -25.3912 2.4481 14.9095 -9.4344 33.1476 -0.0000 26.2537 104.7047 -31.8343 4.0665
 11.5945 19.2222 5.0088 107.3652 33.6642 90.3363 -106.0086 3.4985 13.2335 70.7852 0.0000 -0.0000 55.6731 4.4131 10.1951 50.2028 0.0000 -0.0000 -102.8319 -0.6948 27.4743 84.1803 -0.0000 -0.0000 27.4488 -16.3945 -18.3081 46.4358 -0.0000 -0.0000 68.2044 6.3433 -23.8357 -131.2339 20.8207 2.3048 -147.3630 40.7450 60.1142 111.0863 0.0000 -53.7794 -0.9187 6.3661 8.2287 32.8623 0.0000 -24.3270 39.9878 32.1137 21.5776 30.5342 -52.0589 -46.4313 -109.3873 -0.0000 -25.3753 2.4457 14.8535 -9.4594 33.1476 -0.0000 26.2537 104.7661 -31.4101 4.1041
 11.6378 19.2252 5.0006 107.4250 33.5105 90.2767 -105.8833 3.2109 13.3745 71.3153 0.0000 0.0000 55.6472 4.5368 10.1926 50.4641 -0.0000 0.0000 -102.7996 -0.5414 27.4522 84.9075 0.0000 -0.0000 27.2667 -16.7513 -18.2950 46.5703 0.0000 -0.0000 68.2877 6.3696 -23.8676 -131.4046 20.9627 2.3777 -147.2721 40.9125 60.0536 111.0636 0.0000 -53.6759 -0.9325 6.4816 8.2049 32.8623 0.0000 -24.3270 39.9469 32.2194 21.4560 30.6321 -52.0693 -46.2104 -109.4463 -0.0000 -25.2675 2.4159 14.8088 -9.3733 33.1476 -0.0000 26.2537 104.7818 -31.2600 4.1288
 11.6740 19.2288 4.9844 107.4411 33.4092 90.2314 -105.7969 2.9262 13.5075 71.8133 -0.0000 -0.0000 55.6592 4.6736 10.2100 50.6305 -0.0000 0.0000 -102.7678 -0.4101 27.3876 85.5522 0.0000 -0.0000 26.9945 -17.1479 -18.3721 47.3253 -0.0000 0.0000 68.3152 6.4446 -23.9434 -131.5978 21.0070 2.4414 -147.1423 41.0504 60.0508 111.0711 0.0000 -53.7437 -0.9233 6.6293 7.9475 32.8623 0.0000 -24.3270 39.6670 32.2794 21.6662 30.6613 -52.1833 -46.2530 -109.3970 -0.0000 -25.4623 2.4157 14.8504 -9.3471 33.1476 -0.0000 26.2537 104.8260 -31.3192 4.1096
